<svg aria-hidden="true" style="position: absolute; width: 0; height: 0; overflow: hidden;" version="1.1" xmlns="http://www.w3.org/2000/svg" xmlns:xlink="http://www.w3.org/1999/xlink">
<defs>
<symbol id="icon-ai-artificial-intelligence-chip-1" viewBox="0 0 33 32">
<path fill="none" stroke="#fff629" style="stroke: var(--color1, #fff629)" stroke-linejoin="round" stroke-linecap="round" stroke-miterlimit="4" stroke-width="1.7143" d="M29.905 12h-0.667"></path>
<path fill="none" stroke="#fff629" style="stroke: var(--color1, #fff629)" stroke-linejoin="round" stroke-linecap="round" stroke-miterlimit="4" stroke-width="1.7143" d="M29.905 16h-0.667"></path>
<path fill="none" stroke="#fff629" style="stroke: var(--color1, #fff629)" stroke-linejoin="round" stroke-linecap="round" stroke-miterlimit="4" stroke-width="1.7143" d="M29.905 20h-0.667"></path>
<path fill="none" stroke="#fff629" style="stroke: var(--color1, #fff629)" stroke-linejoin="round" stroke-linecap="round" stroke-miterlimit="4" stroke-width="1.7143" d="M20.72 6.667h-8.296c-2.864 0-5.185 2.322-5.185 5.185v8.296c0 2.864 2.321 5.185 5.185 5.185h8.296c2.864 0 5.185-2.322 5.185-5.185v-8.296c0-2.864-2.322-5.185-5.185-5.185z"></path>
<path fill="none" stroke="#fff629" style="stroke: var(--color1, #fff629)" stroke-linejoin="round" stroke-linecap="round" stroke-miterlimit="4" stroke-width="1.7143" d="M3.905 12h-0.667"></path>
<path fill="none" stroke="#fff629" style="stroke: var(--color1, #fff629)" stroke-linejoin="round" stroke-linecap="round" stroke-miterlimit="4" stroke-width="1.7143" d="M3.905 16h-0.667"></path>
<path fill="none" stroke="#fff629" style="stroke: var(--color1, #fff629)" stroke-linejoin="round" stroke-linecap="round" stroke-miterlimit="4" stroke-width="1.7143" d="M3.905 20h-0.667"></path>
<path fill="none" stroke="#fff629" style="stroke: var(--color1, #fff629)" stroke-linejoin="round" stroke-linecap="round" stroke-miterlimit="4" stroke-width="1.7143" d="M12.572 2.667v0.667"></path>
<path fill="none" stroke="#fff629" style="stroke: var(--color1, #fff629)" stroke-linejoin="round" stroke-linecap="round" stroke-miterlimit="4" stroke-width="1.7143" d="M16.572 2.667v0.667"></path>
<path fill="none" stroke="#fff629" style="stroke: var(--color1, #fff629)" stroke-linejoin="round" stroke-linecap="round" stroke-miterlimit="4" stroke-width="1.7143" d="M20.572 2.667v0.667"></path>
<path fill="none" stroke="#fff629" style="stroke: var(--color1, #fff629)" stroke-linejoin="round" stroke-linecap="round" stroke-miterlimit="4" stroke-width="1.7143" d="M12.572 28.667v0.667"></path>
<path fill="none" stroke="#fff629" style="stroke: var(--color1, #fff629)" stroke-linejoin="round" stroke-linecap="round" stroke-miterlimit="4" stroke-width="1.7143" d="M16.572 28.667v0.667"></path>
<path fill="none" stroke="#fff629" style="stroke: var(--color1, #fff629)" stroke-linejoin="round" stroke-linecap="round" stroke-miterlimit="4" stroke-width="1.7143" d="M20.572 28.667v0.667"></path>
<path fill="none" stroke="#fff629" style="stroke: var(--color1, #fff629)" stroke-linejoin="round" stroke-linecap="round" stroke-miterlimit="4" stroke-width="1.7143" d="M12.302 17.8h4.623"></path>
<path fill="none" stroke="#fff629" style="stroke: var(--color1, #fff629)" stroke-linejoin="round" stroke-linecap="round" stroke-miterlimit="4" stroke-width="1.7143" d="M17.322 19l-1.944-6h-1.512l-1.944 6"></path>
<path fill="none" stroke="#fff629" style="stroke: var(--color1, #fff629)" stroke-linejoin="round" stroke-linecap="round" stroke-miterlimit="4" stroke-width="1.7143" d="M20.622 19v-6"></path>
</symbol>
<symbol id="icon-technology-circle-objects-1" viewBox="0 0 32 32">
<path fill="none" stroke="#2affff" style="stroke: var(--color2, #2affff)" stroke-linejoin="round" stroke-linecap="round" stroke-miterlimit="4" stroke-width="1.7143" d="M16 4c2.373 0 4.694 0.704 6.667 2.022s3.511 3.193 4.42 5.385c0.908 2.193 1.146 4.605 0.683 6.933s-1.606 4.466-3.284 6.144c-1.678 1.678-3.816 2.821-6.144 3.284s-4.741 0.226-6.933-0.683c-2.193-0.908-4.067-2.446-5.385-4.42s-2.022-4.293-2.022-6.667c0-3.183 1.264-6.235 3.515-8.485s5.303-3.515 8.485-3.515z"></path>
<path fill="none" stroke="#2affff" style="stroke: var(--color2, #2affff)" stroke-linejoin="round" stroke-linecap="round" stroke-miterlimit="4" stroke-width="1.7143" d="M19.4 21.044l-3.977 6.956"></path>
<path fill="none" stroke="#2affff" style="stroke: var(--color2, #2affff)" stroke-linejoin="round" stroke-linecap="round" stroke-miterlimit="4" stroke-width="1.7143" d="M5.907 9.52l4.012 6.88"></path>
<path fill="none" stroke="#2affff" style="stroke: var(--color2, #2affff)" stroke-linejoin="round" stroke-linecap="round" stroke-miterlimit="4" stroke-width="1.7143" d="M11.28 21.4c1.473 0 2.667-1.194 2.667-2.667s-1.194-2.667-2.667-2.667c-1.473 0-2.667 1.194-2.667 2.667s1.194 2.667 2.667 2.667z"></path>
<path fill="none" stroke="#2affff" style="stroke: var(--color2, #2affff)" stroke-linejoin="round" stroke-linecap="round" stroke-miterlimit="4" stroke-width="1.7143" d="M20.725 21.4c1.473 0 2.667-1.194 2.667-2.667s-1.194-2.667-2.667-2.667c-1.473 0-2.667 1.194-2.667 2.667s1.194 2.667 2.667 2.667z"></path>
<path fill="none" stroke="#2affff" style="stroke: var(--color2, #2affff)" stroke-linejoin="round" stroke-linecap="round" stroke-miterlimit="4" stroke-width="1.7143" d="M16 13.213c1.473 0 2.667-1.194 2.667-2.667s-1.194-2.667-2.667-2.667c-1.473 0-2.667 1.194-2.667 2.667s1.194 2.667 2.667 2.667z"></path>
<path fill="none" stroke="#2affff" style="stroke: var(--color2, #2affff)" stroke-linejoin="round" stroke-linecap="round" stroke-miterlimit="4" stroke-width="1.7143" d="M18.667 10.547h8.027"></path>
</symbol>
<symbol id="icon-vr-user-glasses-1" viewBox="0 0 32 32">
<path fill="none" stroke="#6c7cff" style="stroke: var(--color3, #6c7cff)" stroke-linejoin="round" stroke-linecap="round" stroke-miterlimit="4" stroke-width="1.7143" d="M12.2 23.16l0.987-3.907"></path>
<path fill="none" stroke="#6c7cff" style="stroke: var(--color3, #6c7cff)" stroke-linejoin="round" stroke-linecap="round" stroke-miterlimit="4" stroke-width="1.7143" d="M18.813 19.253l0.973 3.92"></path>
<path fill="none" stroke="#6c7cff" style="stroke: var(--color3, #6c7cff)" stroke-linejoin="round" stroke-linecap="round" stroke-miterlimit="4" stroke-width="1.7143" d="M10.053 6.707c0.369-1.169 1.1-2.19 2.087-2.916s2.18-1.12 3.406-1.124h0.907c1.226 0.004 2.419 0.397 3.406 1.124s1.718 1.748 2.087 2.916"></path>
<path fill="none" stroke="#6c7cff" style="stroke: var(--color3, #6c7cff)" stroke-linejoin="round" stroke-linecap="round" stroke-miterlimit="4" stroke-width="1.7143" d="M21.747 14.64v0.040c-0.112 1.448-0.766 2.8-1.831 3.786s-2.464 1.534-3.916 1.534c-1.452 0-2.85-0.548-3.916-1.534s-1.719-2.338-1.831-3.786v-0.040"></path>
<path fill="none" stroke="#6c7cff" style="stroke: var(--color3, #6c7cff)" stroke-linejoin="round" stroke-linecap="round" stroke-miterlimit="4" stroke-width="1.7143" d="M21.517 14.667h-11.034c-0.646 0.005-1.268-0.243-1.732-0.692s-0.734-1.062-0.751-1.708v-3.2c0.017-0.646 0.286-1.259 0.751-1.708s1.086-0.697 1.732-0.692h11.11c0.634 0.010 1.239 0.266 1.688 0.714s0.707 1.052 0.719 1.686v3.273c-0.032 0.634-0.309 1.23-0.772 1.664s-1.076 0.672-1.711 0.663z"></path>
<path fill="none" stroke="#6c7cff" style="stroke: var(--color3, #6c7cff)" stroke-linejoin="round" stroke-linecap="round" stroke-miterlimit="4" stroke-width="1.7143" d="M13.333 10h5.333"></path>
<path fill="none" stroke="#6c7cff" style="stroke: var(--color3, #6c7cff)" stroke-linejoin="round" stroke-linecap="round" stroke-miterlimit="4" stroke-width="1.7143" d="M4 28v-0.512c-0-0.925 0.32-1.821 0.907-2.536s1.402-1.205 2.309-1.386l4.284-0.857 0.416 0.277c1.209 0.806 2.63 1.237 4.084 1.237s2.875-0.43 4.084-1.237l0.416-0.277 4.284 0.857c0.907 0.181 1.723 0.671 2.309 1.386s0.907 1.612 0.907 2.536v0.512"></path>
</symbol>
<symbol id="icon-d-sphere1-1" viewBox="0 0 33 32">
<path fill="none" stroke="#ca59ff" style="stroke: var(--color4, #ca59ff)" stroke-linejoin="round" stroke-linecap="round" stroke-miterlimit="4" stroke-width="1.5184" d="M28.571 15.999c0-2.589-5.372-4.688-12-4.688h-1.333"></path>
<path fill="none" stroke="#ca59ff" style="stroke: var(--color4, #ca59ff)" stroke-linejoin="round" stroke-linecap="round" stroke-miterlimit="4" stroke-width="1.5184" d="M16.111 18.888l1.8 1.8-1.8 1.8"></path>
<path fill="none" stroke="#ca59ff" style="stroke: var(--color4, #ca59ff)" stroke-linejoin="round" stroke-linecap="round" stroke-miterlimit="4" stroke-width="1.5184" d="M16.572 28c6.627 0 12-5.373 12-12s-5.373-12-12-12-12 5.373-12 12c0 6.627 5.373 12 12 12z"></path>
<path fill="none" stroke="#ca59ff" style="stroke: var(--color4, #ca59ff)" stroke-linejoin="round" stroke-linecap="round" stroke-miterlimit="4" stroke-width="1.5184" d="M20.935 20.363c4.467-0.682 7.636-2.376 7.636-4.364 0-2.589-5.372-4.688-12-4.688h-1.333"></path>
<path fill="none" stroke="#ca59ff" style="stroke: var(--color4, #ca59ff)" stroke-linejoin="round" stroke-linecap="round" stroke-miterlimit="4" stroke-width="1.5184" d="M12.208 11.637c-4.467 0.682-7.636 2.376-7.636 4.364 0 2.589 5.372 4.688 12 4.688h1.34"></path>
<path fill="none" stroke="#ca59ff" style="stroke: var(--color4, #ca59ff)" stroke-linejoin="round" stroke-linecap="round" stroke-miterlimit="4" stroke-width="1.5184" d="M16.572 28c2.589 0 4.688-5.372 4.688-12v-1.34"></path>
<path fill="none" stroke="#ca59ff" style="stroke: var(--color4, #ca59ff)" stroke-linejoin="round" stroke-linecap="round" stroke-miterlimit="4" stroke-width="1.5184" d="M16.573 4c-2.589 0-4.688 5.372-4.688 12v1.333"></path>
<path fill="none" stroke="#ca59ff" style="stroke: var(--color4, #ca59ff)" stroke-linejoin="round" stroke-linecap="round" stroke-miterlimit="4" stroke-width="1.5184" d="M16.572 4c1.987 0 3.681 3.169 4.364 7.636"></path>
<path fill="none" stroke="#ca59ff" style="stroke: var(--color4, #ca59ff)" stroke-linejoin="round" stroke-linecap="round" stroke-miterlimit="4" stroke-width="1.5184" d="M16.572 28c-1.987 0-3.681-3.169-4.364-7.636"></path>
</symbol>
</defs>
</svg>